<?xml version="1.0" encoding="UTF-8" standalone="no"?>
<!DOCTYPE svg PUBLIC "-//W3C//DTD SVG 1.1//EN" "http://www.w3.org/Graphics/SVG/1.1/DTD/svg11.dtd">
<svg version="1.1" xmlns="http://www.w3.org/2000/svg" xmlns:xlink="http://www.w3.org/1999/xlink" preserveAspectRatio="xMidYMid meet" viewBox="0 0 640 640" width="640" height="640"><defs><path d="M470.14 8.51L309.13 380.64L470.14 380.64L470.14 8.51Z" id="d1zB9652lv"></path><path d="M222.75 43.83L0 380.64L222.75 380.64L222.75 43.83Z" id="a2Ei0n5dHq"></path><path d="M222.81 43.83L412.77 380.64L222.81 380.64L222.81 43.83Z" id="a1ocYPp8Gz"></path><path d="M470.14 3.19L640 380.64L470.14 380.64L470.14 3.19Z" id="b4Uvdupfd9"></path><path d="M73.28 453.51L73.28 454.04L73.28 454.04L73.28 454.04L73.28 453.51L73.28 452.98L73.28 453.51Z" id="g77P4DvwA"></path><path d="M480 467.34L640 391.91L319.99 391.91L0 391.91L159.98 467.34L319.99 542.77L480 467.34Z" id="b65L0JWgh"></path></defs><g><g><g><use xlink:href="#d1zB9652lv" opacity="1" fill="#507419" fill-opacity="1"></use><g><use xlink:href="#d1zB9652lv" opacity="1" fill-opacity="0" stroke="#507419" stroke-width="0" stroke-opacity="1"></use></g></g><g><use xlink:href="#a2Ei0n5dHq" opacity="1" fill="#507419" fill-opacity="1"></use><g><use xlink:href="#a2Ei0n5dHq" opacity="1" fill-opacity="0" stroke="#507419" stroke-width="0" stroke-opacity="1"></use></g></g><g><use xlink:href="#a1ocYPp8Gz" opacity="1" fill="#65931d" fill-opacity="1"></use><g><use xlink:href="#a1ocYPp8Gz" opacity="1" fill-opacity="0" stroke="#507419" stroke-width="0" stroke-opacity="1"></use></g></g><g><use xlink:href="#b4Uvdupfd9" opacity="1" fill="#65931d" fill-opacity="1"></use><g><use xlink:href="#b4Uvdupfd9" opacity="1" fill-opacity="0" stroke="#507419" stroke-width="0" stroke-opacity="1"></use></g></g><g><use xlink:href="#g77P4DvwA" opacity="1" fill="#65931d" fill-opacity="1"></use></g><g><use xlink:href="#b65L0JWgh" opacity="1" fill="#3fb7d5" fill-opacity="1"></use><g><use xlink:href="#b65L0JWgh" opacity="1" fill-opacity="0" stroke="#507419" stroke-width="0" stroke-opacity="1"></use></g></g></g></g></svg>